<?xml version="1.0" encoding="UTF-8" standalone="no"?>
<!-- Created with Inkscape (http://www.inkscape.org/) -->

<svg
   xmlns:dc="http://purl.org/dc/elements/1.1/"
   xmlns:cc="http://creativecommons.org/ns#"
   xmlns:rdf="http://www.w3.org/1999/02/22-rdf-syntax-ns#"
   xmlns:svg="http://www.w3.org/2000/svg"
   xmlns="http://www.w3.org/2000/svg"
   xmlns:sodipodi="http://sodipodi.sourceforge.net/DTD/sodipodi-0.dtd"
   xmlns:inkscape="http://www.inkscape.org/namespaces/inkscape"
   width="550"
   height="550"
   id="svg2"
   version="1.1"
   inkscape:version="0.48.4 r9939"
   sodipodi:docname="icon.svg"
   inkscape:export-filename="/home/carlos/dev/Hack/linkedin-htmlresume/icon.png"
   inkscape:export-xdpi="83.779999"
   inkscape:export-ydpi="83.779999">
  <defs
     id="defs4" />
  <sodipodi:namedview
     id="base"
     pagecolor="#ffffff"
     bordercolor="#666666"
     borderopacity="1.0"
     inkscape:pageopacity="0.0"
     inkscape:pageshadow="2"
     inkscape:zoom="0.49497475"
     inkscape:cx="249.57254"
     inkscape:cy="404.97619"
     inkscape:document-units="px"
     inkscape:current-layer="layer1"
     showgrid="false"
     fit-margin-top="0"
     fit-margin-left="0"
     fit-margin-right="0"
     fit-margin-bottom="0"
     inkscape:window-width="1920"
     inkscape:window-height="1064"
     inkscape:window-x="3285"
     inkscape:window-y="-2"
     inkscape:window-maximized="1" />
  <metadata
     id="metadata7">
    <rdf:RDF>
      <cc:Work
         rdf:about="">
        <dc:format>image/svg+xml</dc:format>
        <dc:type
           rdf:resource="http://purl.org/dc/dcmitype/StillImage" />
        <dc:title></dc:title>
      </cc:Work>
    </rdf:RDF>
  </metadata>
  <g
     inkscape:label="Layer 1"
     inkscape:groupmode="layer"
     id="layer1"
     transform="translate(127.27922,-330.63624)">
    <g
       id="g3830"
       transform="matrix(0.70527489,0,0,0.70527489,-37.512382,259.54561)">
      <rect
         ry="173.35078"
         rx="173.35078"
         y="100.79848"
         x="-127.27922"
         height="779.83777"
         width="779.83777"
         id="rect3058"
         style="fill:#204a87;fill-opacity:1;stroke:none" />
      <path
         style="fill:#eeeeec"
         d="m 15.454465,784.04088 c -1.264956,-0.52322 -3.593625,-2.34326 -5.17482,-4.04453 L 7.404744,776.90312 7.0871825,561.09066 C 6.912515,442.3938 7.072923,343.9845 7.4437391,342.4033 8.1973081,339.18959 145.65722,200.73586 150.80517,198.00539 c 2.65423,-1.40781 27.59248,-1.64705 171.68867,-1.64705 148.43882,0 168.98647,0.20845 171.95669,1.74441 7.29608,3.77294 6.86212,-6.21272 6.86212,157.90217 0,118.14432 -0.30081,149.65357 -1.43745,150.56974 -2.77369,2.23565 -21.67808,11.77255 -23.33598,11.77255 -1.05975,0 -1.67808,-1.16238 -1.68226,-3.16239 -0.003,-1.73931 -0.13299,-67.84765 -0.28749,-146.90741 l -0.28089,-143.74504 -151.21976,0 -151.21977,0 -0.59988,62.67284 c -0.56224,58.74104 -0.73476,62.87416 -2.75025,65.88192 -1.18273,1.765 -3.24145,3.83492 -4.57496,4.59984 -1.78044,1.02128 -19.22726,1.5435 -65.672363,1.96573 l -63.247808,0.57498 0,198.36814 0,198.36814 219.067421,0 219.06741,0 0.30018,-47.34096 0.30016,-47.34096 12.02166,-6.41968 c 6.61192,-3.53082 12.816,-6.41968 13.78685,-6.41968 1.56516,0 1.76518,7.04098 1.76518,62.13478 0,68.16025 -0.0104,68.27306 -6.75206,71.7592 -3.13023,1.61871 -27.47608,1.79393 -240.14479,1.72843 C 124.25202,785.02495 16.719422,784.5641 15.454465,784.04088 z M 142.25241,290.08563 c 0.16627,-22.76617 0.0135,-42.1457 -0.3395,-43.06561 -0.7133,-1.85883 -84.484897,81.03976 -84.484897,83.60445 0,1.15576 8.749725,1.39507 42.261034,1.15587 l 42.261033,-0.30166 0.30233,-41.39305 z m -63.641915,436.0049 c -0.330866,-0.86223 -0.445575,-4.87684 -0.2549,-8.92133 l 0.346678,-7.35361 68.422637,0 68.42263,0 0,8.6247 0,8.6247 -68.16773,0.29662 c -56.696205,0.24671 -68.268967,0.0328 -68.769315,-1.27108 z M 274.27765,693.634 c -0.9939,-0.99388 -1.80708,-2.72132 -1.80708,-3.83873 0,-1.1174 11.05981,-16.73426 24.57735,-34.70415 l 24.57735,-32.67251 87.99735,-43.98598 c 48.39854,-24.19228 88.562,-43.98597 89.25215,-43.98597 1.6244,0 8.42823,13.45074 7.9658,15.74786 -0.20895,1.03792 -35.16448,19.19036 -85.62234,44.46379 -46.89808,23.49037 -86.35609,43.69558 -87.68446,44.90045 -3.62619,3.28901 -3.30715,10.16537 0.61475,13.25033 1.66649,1.31087 4.03593,2.38339 5.26539,2.38339 1.22948,0 41.36184,-19.63474 89.18302,-43.63276 47.82116,-23.99801 87.38524,-43.36226 87.92017,-43.03166 1.75352,1.08374 18.30326,35.14345 17.76187,36.55428 -0.29044,0.7569 -40.3669,21.39725 -89.05879,45.86746 l -88.5307,44.49128 -40.30238,0 c -35.10524,0 -40.5354,-0.23302 -42.10945,-1.80708 z M 78.610495,682.39204 c -0.330866,-0.86223 -0.445575,-4.87683 -0.2549,-8.92132 l 0.346678,-7.35362 68.422637,0 68.42263,0 0,8.6247 0,8.6247 -68.16773,0.29662 c -56.696205,0.24672 -68.268967,0.0328 -68.769315,-1.27108 z m 0,-43.69849 c -0.330866,-0.86223 -0.445575,-4.87683 -0.2549,-8.92132 l 0.346678,-7.35362 68.422637,0 68.42263,0 0,8.6247 0,8.6247 -68.16773,0.29663 c -56.696205,0.24671 -68.268967,0.0328 -68.769315,-1.27109 z M 542.77474,578.27201 c -10.68089,-21.33038 -11.30101,-18.69891 6.50111,-27.58741 11.96259,-5.97287 14.13465,-8.02277 14.13465,-13.33971 0,-3.58758 -4.69097,-8.64804 -8.0166,-8.64804 -1.30424,0 -8.10347,2.87477 -15.1094,6.38838 -7.00592,3.5136 -13.53807,6.23038 -14.51587,6.03729 -1.97703,-0.39042 -8.29273,-11.82238 -8.33168,-15.08106 -0.0183,-1.52654 3.57253,-3.82275 13.48718,-8.6247 13.36571,-6.47343 13.6241,-6.54429 23.86167,-6.54429 8.77953,0 11.33009,0.45972 16.81243,3.03034 9.09089,4.26263 15.32507,10.34426 19.68767,19.20597 3.34456,6.79376 3.74851,8.67285 3.74851,17.43732 0,8.76447 -0.40395,10.64356 -3.74851,17.43732 -4.88397,9.92074 -10.14512,14.49769 -25.53986,22.21845 -6.95578,3.48845 -12.91118,6.34264 -13.23423,6.34264 -0.32306,0 -4.70473,-8.22262 -9.73707,-18.2725 z m -463.877882,8.21035 c -0.806191,-1.34717 8.128712,-48.56824 10.240971,-54.12368 4.310212,-11.3363 19.871461,-22.45604 38.437751,-27.46682 11.20152,-3.02314 30.27372,-2.70405 41.35805,0.69193 18.0473,5.5293 30.901,14.89541 35.87573,26.14162 2.46465,5.57176 11.68714,52.93401 10.63798,54.63157 -0.74789,1.21012 -135.827111,1.33414 -136.550482,0.12538 z m 195.203362,-7.59587 c -0.32894,-0.85722 -0.44206,-4.8677 -0.25139,-8.91219 l 0.34668,-7.35362 56.16005,-0.29848 c 40.23961,-0.21388 56.04128,0.0578 55.74104,0.95857 -0.23047,0.69139 -7.34876,4.83619 -15.81843,9.21067 l -15.39942,7.95362 -40.09022,0 c -32.67298,0 -40.20087,-0.28835 -40.68831,-1.55857 z m 0.003,-43.69038 c -0.33066,-0.86168 -0.44518,-4.87581 -0.25451,-8.9203 l 0.34635,-7.35362 77.62231,0 77.62232,0 0,8.6247 0,8.62471 -77.36781,0.29559 c -64.43835,0.2462 -77.46827,0.0338 -77.96899,-1.27108 z m 0,-43.69849 c -0.33066,-0.86168 -0.44518,-4.87581 -0.25451,-8.9203 l 0.34635,-7.35361 77.62231,0 77.62232,0 0,8.6247 0,8.6247 -77.36781,0.2956 c -64.43835,0.24619 -77.46827,0.0338 -77.96899,-1.27109 z M 135.1856,490.69179 c -12.86505,-3.22989 -27.19048,-15.25921 -32.53353,-27.31898 -5.623791,-12.69342 -5.466373,-28.94853 0.40079,-41.38727 3.57684,-7.58308 13.81004,-18.37908 20.80213,-21.94618 20.52314,-10.47013 44.41714,-6.26793 59.53067,10.46954 22.10687,24.48225 14.5652,62.1607 -15.31407,76.50961 -7.22017,3.46734 -9.76138,4.07622 -18.39936,4.40854 -5.5122,0.21206 -12.03119,-0.11881 -14.48663,-0.73526 z m 138.91762,-42.89266 c -0.33066,-0.86167 -0.44518,-4.87581 -0.25451,-8.9203 l 0.34635,-7.35361 77.62231,0 77.62232,0 0,8.6247 0,8.6247 -77.36781,0.2956 c -64.43835,0.24619 -77.46827,0.0338 -77.96899,-1.27109 z m 0,-43.69849 c -0.33066,-0.86167 -0.44518,-4.8758 -0.25451,-8.92029 l 0.34635,-7.35362 77.62231,0 77.62232,0 0,8.6247 0,8.6247 -77.36781,0.2956 c -64.43835,0.24619 -77.46827,0.0338 -77.96899,-1.27109 z m 0,-43.69848 c -0.33066,-0.86168 -0.44518,-4.87581 -0.25451,-8.9203 l 0.34635,-7.35362 77.62231,0 77.62232,0 0,8.6247 0,8.6247 -77.36781,0.2956 c -64.43835,0.2462 -77.46827,0.0338 -77.96899,-1.27108 z m 0,-43.69849 c -0.33066,-0.86168 -0.44518,-4.87581 -0.25451,-8.9203 l 0.34635,-7.35362 77.62231,0 77.62232,0 0,8.62471 0,8.6247 -77.36781,0.29559 c -64.43835,0.2462 -77.46827,0.0338 -77.96899,-1.27108 z"
         id="path3052"
         inkscape:connector-curvature="0" />
    </g>
  </g>
</svg>
